#!OML:ASF F:\VICON\USERDATA\INSTALL\rory3\rory3.ASF
:FULLY-SPECIFIED
:DEGREES
18
root 1.146422485618314 18.139687477436535 -11.82698993007425 -2.0087219603280895 -3.8441847958349626 -2.03514014519129
lfemur -16.747294217553964 -2.2313908759017136 -19.89559987837405
ltibia 18.544307229691015
lfoot 0.46502976468469104 -2.7023474983473657
ltoes -1.4908629118602024
rfemur 2.6425596775153473 4.99552807786817 25.510700247991963
rtibia 52.25539098000603
rfoot 16.642173830803138 1.0449862285590408
rtoes 8.031063113784592
lowerback 8.664065242968688 2.023601954286588 2.7839264756669766
upperback -0.3223626582935387 3.025792657222251 0.8691240530133286
thorax -5.099006589299064 1.4315825871116004 -1.046792005816155
lowerneck -17.027696435408743 -3.2087130570696423 -1.825162594356737
upperneck 22.696582037881395 -4.075054817538395 0.3347951297906404
head 10.09108424897547 -1.9984218779066987 -0.1316820654365514
lclavicle -2.7971981472530934e-15 -4.160076361964552e-16
lhumerus -38.60758637660644 9.87028270005888 79.61161996028162
lradius 18.10891544921226
lwrist -1.0797216922697483
lhand -25.56020781660201 21.026007300238348
lfingers 7.1250199999999975
lthumb 0.9705011831497311 51.003507277277656
rclavicle -2.7971981472530934e-15 -4.160076361964552e-16
rhumerus -28.658498658268833 -17.94830013386071 -79.42479886971151
rradius 25.550397674835715
rwrist 5.960560648578679
rhand -17.69069882932043 26.473582678762657
rfingers 7.1250199999999975
rthumb 8.568851169416797 -3.332527334279308
19
root 1.1862915352013048 18.208983603871697 -10.928290329456734 -2.3716390933895073 -3.2936765143904014 -0.7265103746606247
lfemur -13.603796339901422 -2.163651134592927 -22.13169665037221
ltibia 19.68770659953863
lfoot -2.2723340343530487 -2.143068276884308
ltoes -2.444281557533793
rfemur -4.005625823428922 4.359920359916714 23.804502772579976
rtibia 62.672985052970134
rfoot 10.100380696819999 -3.1455659274075902
rtoes 7.032844650128082
lowerback 9.474974977420148 1.7742634486475533 1.2516599870784006
upperback -0.2857006195404731 2.541124530516878 0.6831069586989365
thorax -5.591654999974718 1.225224312658868 -0.34952088633077183
lowerneck -16.656401568920455 -3.0817964356549266 -1.768453306743762
upperneck 21.47319582121939 -3.9166975651370515 0.38926753991732943
head 9.584817651481414 -1.9209853818997709 -0.08241841870477801
lclavicle -2.7971981595341233e-15 -4.160076167795146e-16
lhumerus -37.26098850077514 6.826208445986102 81.1567111823787
lradius 20.273410812104196
lwrist 0.8556739580669737
lhand -25.69690712643235 23.78409936310993
lfingers 7.1250199999999975
lthumb 0.8385258730836139 53.762199341508456
rclavicle -2.7971981595341233e-15 -4.160076167795146e-16
rhumerus -29.77189561637022 -18.307199535621066 -79.20149962144953
rradius 24.718800217199526
rwrist 5.633311459596265
rhand -17.42470107707866 17.91411905489743
rfingers 7.1250199999999975
rthumb 8.825568921470689 -11.88138089779806
20
root 1.2046010987293858 18.200584073394708 -10.085090704175114 -2.808375643299249 -2.498138997868629 -0.003077119967337616
lfemur -10.779998246402103 -2.5566096339242064 -23.37699485267503
ltibia 20.343906237892725
lfoot -4.790531089675494 -1.4353592620409112
ltoes 1.4077629706562544
rfemur -10.637701335275318 3.3137041161899443 22.775704294849437
rtibia 68.88458151891473
rfoot 2.4226387550855364 -7.906917014931281
rtoes 5.108247612247318
lowerback 9.679112393183624 1.3749058421182956 0.30100716563755225
upperback 0.3626973800249907 1.8977970170471545 0.687555913120822
thorax -5.065017388879169 0.9368827237424173 0.2833704991153767
lowerneck -17.406891192673378 -3.0133782569817877 -1.6320950196884754
upperneck 21.119799802772153 -3.786679821027285 0.17235988877676056
head 9.590437502705866 -1.871817606736281 -0.17165496738430178
lclavicle -2.7971981874458775e-15 -4.1600762281451624e-16
lhumerus -34.93309217287691 6.00997998668088 81.47270938714388
lradius 21.773507598370877
lwrist 2.446976737306639
lhand -27.10360002429877 19.067012937754974
lfingers 7.1250199999999975
lthumb -0.5201580240570483 49.04611290800032
rclavicle -2.7971981874458775e-15 -4.1600762281451624e-16
rhumerus -29.306296888426978 -20.560795779162817 -78.5035019712621
rradius 22.835805973898708
rwrist 9.412722093129993
rhand -17.225802757827196 20.47520817074313
rfingers 7.1250199999999975
rthumb 9.017497240852515 -9.312061848616747
21
root 1.0822558522357126 18.093181737405125 0.044650611712812704 -3.5214049724755707 -2.8778264269427916 1.1449398699884048
lfemur -6.35818038114117 -2.826473813210473 -25.2196575700083
ltibia 26.35469128563104
lfoot -10.158761377515354 -0.00830101809313899
ltoes -0.7547463405401706
rfemur -17.668495527446108 2.1095164311689136 21.919830909325512
rtibia 63.265670783618745
rfoot -2.136945581332359 -5.801669154766085
rtoes 6.844838290146853
lowerback 10.128781904808893 1.08724242367319 -0.667983914786763
upperback 0.4354505435882985 1.3874774424248866 0.4448619232122739
thorax -5.107715472428491 0.7125620152553654 0.8682499007993493
lowerneck -16.665333718886597 -2.7723184157731633 -1.554075085989786
upperneck 21.517649806544906 -3.495930092449659 0.2621925649975757
head 9.644258517207094 -1.7348367246617382 -0.061923260876341285
lclavicle -2.4805586357042162e-15 -2.0484930149255337e-16
lhumerus -33.29442720117115 3.1907858299015883 82.10867218676091
lradius 23.193736404920113
lwrist 3.3850569228595644
lhand -26.008148673627005 23.61631200691204
lfingers 7.1250199999999975
lthumb 0.5379472416044945 53.58714572538275
rclavicle -2.4805586357042162e-15 -2.0484930149255337e-16
rhumerus -27.732504131388083 -19.53237892642902 -78.28867476399532
rradius 23.619485947920477
rwrist 7.8994063925984905
rhand -16.65041978638225 22.03823903950822
rfingers 7.1250199999999975
rthumb 9.572581430163023 -7.922551055791689
22
root 1.0130838780189968 18.052872535635824 0.8927905759004595 -3.5801060501797064 -2.3503252327252664 1.6663237242139814
lfemur -4.638196772487332 -2.6668532561063616 -26.466621432450793
ltibia 26.87219488744224
lfoot -12.734645909257967 1.4893319222445325
ltoes 0.32125406362102193
rfemur -22.49149982027408 1.3751727306296475 21.47374942076665
rtibia 59.777335139402965
rfoot -6.097795259841035 -6.789377094786574
rtoes 4.00659977506612
lowerback 10.384010011996965 0.6476996539762594 -1.537753040142537
upperback 0.5961644127864999 0.6898774612165595 0.5243947823877202
thorax -5.114342391788061 0.38970557939323164 1.3729953868181313
lowerneck -16.62516949989671 -2.7580776885160505 -1.883081345982972
upperneck 21.49762378712661 -3.453514979388602 0.38374606386903176
head 9.624290161450654 -1.7216055325009074 0.01970934794908019
lclavicle -2.7539970576044763e-15 -3.872203867066871e-16
lhumerus -30.96749595907094 0.6856664659485509 82.69125564018749
lradius 24.58464200328476
lwrist 3.8221665960529334
lhand -26.22396238087878 24.289680665794393
lfingers 7.1250199999999975
lthumb 0.3295036556350518 54.26076851832021
rclavicle -2.7539970576044763e-15 -3.872203867066871e-16
rhumerus -28.16503864059365 -19.210256350009985 -78.68988667149766
rradius 23.92433343333486
rwrist 7.570590984358832
rhand -16.742594296723293 22.069571838109965
rfingers 7.1250199999999975
rthumb 9.48358653553186 -7.680511075666664
23
root 0.9507377587324068 18.00742204881246 1.8055193582309261 -3.234980735319456 -1.6688124841782366 2.2176236880310936
lfemur -1.4287476011210511 -2.5998299944825756 -27.780741079957306
ltibia 24.682619157379058
lfoot -14.8772311514402 2.157212764513183
ltoes 0.9677590719797178
rfemur -26.823081690080876 1.2652713526892483 20.439752586468796
rtibia 52.26227707651102
rfoot -8.045570773807992 -9.13371362924432
rtoes 2.0671810097435377
lowerback 10.430924443994808 0.14940068601389156 -2.5243419600362396
upperback 0.6578758564414383 -0.07819393439845634 0.5955741851505063
thorax -5.09340799513074 0.030027263434450613 1.9576949973777849
lowerneck -16.73084427534525 -2.7732067937527463 -2.133250055091125
upperneck 21.339778779116767 -3.4550653698705256 0.4420277653445568
head 9.574620215798634 -1.723198452910377 0.06796721060811271
lclavicle -3.0830868131704465e-15 -6.067128171095176e-16
lhumerus -28.325580774409985 -1.7720469718776377 82.87067935514611
lradius 25.989281756715933
lwrist 4.642239878871619
lhand -26.31294864523578 25.389569801394828
lfingers 7.1250199999999975
lthumb 0.24355022585848662 55.35584656003868
rclavicle -3.0830868131704465e-15 -6.067128171095176e-16
rhumerus -28.87740392722379 -18.828255846966826 -79.11313285198518
rradius 24.262336725958406
rwrist 6.663677497672693
rhand -16.92405311680802 22.60159039189383
rfingers 7.1250199999999975
rthumb 9.308499553282576 -7.083225965585868
24
root 0.894524196369169 17.958110261499346 3.9367626793392656 -2.5733610952038015 -0.7375330745974338 2.8538377258805725
lfemur 2.0432922257229116 -2.252349199089096 -27.791365692709906
ltibia 22.762140563058402
lfoot -15.174231495789051 2.1050522067028368
ltoes 2.1513947134564133
rfemur -27.22683735221517 2.5101047481304177 19.337603033206065
rtibia 41.55956811798117
rfoot -7.865702572342179 -12.100593978390094
rtoes 0.517096097044794
lowerback 10.263353426268845 -0.06252426095452068 -3.1581688762564477
upperback 0.6402881093715636 -0.4353982738532354 0.6573096648431801
thorax -4.990848090669468 -0.13149930099724438 2.5014799872038895
lowerneck -16.886901748729272 -2.8080249824407577 -2.1881769086610485
upperneck 21.184869692991654 -3.497619468774975 0.6051653615161356
head 9.537066198623437 -1.7366254098312408 0.13197213719508566
lclavicle -2.333267177348222e-15 -1.0657848327351551e-16
lhumerus -26.048884054980263 -3.2340896850694296 82.86903649780714
lradius 27.791668963958617
lwrist 5.683629382016479
lhand -26.308348341196893 26.482968057489465
lfingers 7.1250199999999975
lthumb 0.24794263402786465 56.4487668151164
rclavicle -2.333267177348222e-15 -1.0657848327351537e-16
rhumerus -29.161821680771588 -18.37402331927363 -79.16722653666113
rradius 24.19255474701299
rwrist 6.421645068879146
rhand -16.958529239040143 23.30684561506778
rfingers 7.1250199999999975
rthumb 9.275239292271408 -6.480860270705834
